<?xml version="1.0" encoding="utf-8"?>
<!-- Generator: Adobe Illustrator 23.0.4, SVG Export Plug-In . SVG Version: 6.00 Build 0)  -->
<svg version="1.1" id="Layer_1" xmlns="http://www.w3.org/2000/svg" xmlns:xlink="http://www.w3.org/1999/xlink" x="0px" y="0px"
	 viewBox="0 0 168.2 120.5" style="enable-background:new 0 0 168.2 120.5;" xml:space="preserve">
<path d="M50.2,78.2c1.2,2.2,2.9,4.5,4.6,6.9c3.6,5.2,7.6,11,8.1,16c-1.5,1.1-2.4,2.9-2.4,4.7c0,1.3,0.5,2.7,1.3,3.7
	c-1.2,1.2-1.8,2.8-1.8,4.4c0,3.3,2.7,6,6,6h33.9c3.3,0,6-2.7,6-6.1c0,0,0,0,0-0.1c0-1.6-0.7-3.2-1.8-4.3c0.9-1.1,1.3-2.4,1.3-3.8
	c0-3.2-2.6-5.7-5.7-5.7c-0.1,0-0.2,0-0.3,0H84.8v-38h4v6c0,1.1,0.9,2,2,2h6v2.4c-3.1,1.1-4.7,4.5-3.6,7.6c1.1,3.1,4.5,4.7,7.6,3.6
	c3.1-1.1,4.7-4.5,3.6-7.6c-0.6-1.7-1.9-3-3.6-3.6v-4.4c0-1.1-0.9-2-2-2h-6v-4h8c1.1,0,2-0.9,2-2v-4h12.3c1.1,3.1,4.5,4.7,7.6,3.6
	c3.1-1.1,4.7-4.5,3.6-7.6c-1.1-3.1-4.5-4.7-7.6-3.6c-1.7,0.6-3,1.9-3.6,3.6h-12.3v-8h8c1.1,0,2-0.9,2-2v-8.3
	c3.1-1.1,4.7-4.5,3.6-7.6c-1.1-3.1-4.5-4.7-7.6-3.6c-3.1,1.1-4.7,4.5-3.6,7.6c0.6,1.7,1.9,3,3.6,3.6v6.4h-6v-4c0-1.1-0.9-2-2-2h-4
	V23.9c3.1-1.1,4.7-4.5,3.6-7.6c-1.1-3.1-4.5-4.7-7.6-3.6c-3.1,1.1-4.7,4.5-3.6,7.6c0.6,1.7,1.9,3,3.6,3.6v10.3h-8V2.4
	c0-1.1-0.9-2-2-2C58.2,0.4,39,18.2,39,40.9C39,51.7,43.3,66,50.2,78.2z M98.8,76.1c1.1,0,2,0.9,2,2s-0.9,2-2,2c-1.1,0-2-0.9-2-2
	S97.7,76.1,98.8,76.1z M120.7,52.1c1.1,0,2,0.9,2,2c0,1.1-0.9,2-2,2c-1.1,0-2-0.9-2-2C118.7,53,119.6,52.1,120.7,52.1z M110.8,26.2
	c1.1,0,2,0.9,2,2c0,1.1-0.9,2-2,2s-2-0.9-2-2C108.8,27.1,109.7,26.2,110.8,26.2z M94.8,16.2c1.1,0,2,0.9,2,2s-0.9,2-2,2s-2-0.9-2-2
	S93.7,16.2,94.8,16.2z M84.8,38.2h14v19.9h-14V38.2z M99.8,116H65.9c-1.1,0-2-0.9-2-2.1c0,0,0,0,0-0.1c0-1.1,0.9-2,2-2h33.9
	c1.1,0,2,0.9,2,2.1c0,0,0,0,0,0.1C101.8,115.1,100.9,116,99.8,116z M99.3,104.1c1-0.1,1.9,0.6,2,1.7c0,0.1,0,0.1,0,0.2
	c0,1.1-0.9,2-2,2H66.4c-1.1,0-2-0.9-2-2.1c0,0,0,0,0-0.1c0-1,0.9-1.8,1.9-1.7c0,0,0.1,0,0.1,0H99.3z M68.7,64.9
	c-0.9-0.8-1.8-1.6-2.6-2.6c-0.5-0.6-1.4-0.9-2.1-0.6l-2.6,0.9c-0.7-1-1.2-2-1.8-3l2.1-1.9c0.6-0.5,0.8-1.4,0.5-2.2
	c-0.4-1.1-0.7-2.3-0.9-3.5c-0.1-0.8-0.8-1.4-1.6-1.6L57,49.9c0-0.6-0.1-1.2-0.1-1.7c0-0.6,0-1.1,0.1-1.7l2.7-0.6
	c0.8-0.2,1.4-0.8,1.6-1.6c0.2-1.2,0.5-2.3,0.9-3.5c0.3-0.8,0.1-1.6-0.5-2.2l-2.1-1.9c0.5-1,1.1-2,1.8-3l2.6,0.9
	c0.8,0.3,1.6,0,2.1-0.6c0.8-0.9,1.6-1.8,2.6-2.6c0.6-0.5,0.9-1.4,0.6-2.1l-0.9-2.6c1-0.7,2-1.2,3-1.8l1.9,2.1
	c0.5,0.6,1.4,0.8,2.2,0.5c1.1-0.4,2.3-0.7,3.5-0.9c0.8-0.1,1.4-0.8,1.6-1.6l0.3-1.6v6.9c-9.8,1.1-16.9,10-15.8,19.9
	C66,58.5,72.6,65,80.9,66v6.9l-0.3-1.6c-0.2-0.8-0.8-1.4-1.6-1.6c-1.2-0.2-2.3-0.5-3.5-0.9c-0.2-0.1-0.4-0.1-0.7-0.1
	c-0.6,0-1.1,0.2-1.5,0.7l-1.9,2.1c-1-0.5-2-1.1-3-1.8l0.9-2.6C69.5,66.3,69.3,65.4,68.7,64.9z M80.9,34.4V62
	c-7.6-1.1-12.9-8.2-11.8-15.8C69.9,40,74.7,35.2,80.9,34.4z M80.9,4.4v13.9c-0.5,0-1.1,0.1-1.6,0.2c-0.8,0.1-1.5,0.7-1.7,1.6
	l-0.6,2.9c-0.5,0.1-1,0.3-1.5,0.4l-2-2.2c-0.6-0.6-1.5-0.8-2.3-0.5c-2.2,1-4.3,2.2-6.3,3.7c-0.7,0.5-1,1.4-0.7,2.2l0.9,2.8
	c-0.4,0.4-0.7,0.7-1.1,1.1l-2.8-0.9c-0.8-0.3-1.7,0-2.2,0.7c-1.5,1.9-2.7,4-3.7,6.3c-0.3,0.8-0.1,1.7,0.5,2.3l2.2,2
	c-0.2,0.5-0.3,1-0.4,1.5l-2.9,0.6c-0.8,0.2-1.5,0.9-1.6,1.7c-0.3,2.4-0.3,4.9,0,7.3c0.1,0.8,0.7,1.5,1.6,1.7l2.9,0.6
	c0.1,0.5,0.3,1,0.4,1.5l-2.2,2c-0.6,0.6-0.8,1.5-0.5,2.3c1,2.2,2.2,4.3,3.7,6.3c0.5,0.7,1.4,1,2.2,0.7l2.8-0.9
	c0.4,0.4,0.7,0.7,1.1,1.1l-0.9,2.8c-0.3,0.8,0,1.7,0.7,2.2c1.9,1.5,4,2.7,6.3,3.7c0.8,0.3,1.7,0.1,2.3-0.5l2-2.2
	c0.5,0.2,1,0.3,1.5,0.4l0.6,2.9c0.2,0.8,0.9,1.5,1.7,1.6c0.6,0.1,1.1,0.1,1.6,0.2v22.1H66.7c-0.8-5.9-5-11.9-8.8-17.2
	c-1.7-2.4-3.2-4.6-4.4-6.6C47.1,64.8,43,50.9,43,40.9C43,21,59.4,5.3,80.9,4.4z"/>
<path d="M100.2,95.4l3.7,1.5c0.5-1.2,1-2.3,1.6-3.4l-3.5-1.9C101.4,92.8,100.8,94.1,100.2,95.4z"/>
<path d="M109.8,86.8l-3.3-2.3c-0.8,1.1-1.6,2.3-2.3,3.4l3.3,2.2C108.3,89,109.1,87.9,109.8,86.8z"/>
<path d="M114.5,80l-3.4-2.1c-0.7,1.1-1.4,2.2-2.2,3.3l3.3,2.3C113,82.3,113.8,81.1,114.5,80z"/>
<path d="M118.4,72.6l-3.6-1.7c-0.6,1.2-1.2,2.4-1.8,3.5l3.5,1.9C117.2,75.1,117.9,73.9,118.4,72.6z"/>
<path d="M121.7,65l-3.7-1.4c-0.5,1.2-1,2.5-1.5,3.7l3.7,1.6C120.7,67.6,121.2,66.3,121.7,65z"/>
<path d="M126.6,44.8c0.1-1.3,0.2-2.6,0.2-3.8v-0.4l-4,0v0.4c0,1.1-0.1,2.3-0.2,3.5L126.6,44.8z"/>
<path d="M121.8,32.9c0.3,1.2,0.5,2.5,0.7,3.8l4-0.5c-0.2-1.4-0.4-2.8-0.7-4.2L121.8,32.9z"/>
<path d="M119.3,25.7c0.6,1.2,1.1,2.3,1.5,3.5l3.8-1.3c-0.5-1.3-1-2.7-1.7-4L119.3,25.7z"/>
<path d="M115.2,19.2c0.8,1,1.5,2.1,2.2,3.1l3.4-2.1c-0.8-1.2-1.6-2.4-2.5-3.5L115.2,19.2z"/>
<path d="M109.8,13.7c1,0.8,1.9,1.7,2.8,2.6l2.8-2.8c-1-1-2-2-3.1-2.9L109.8,13.7z"/>
<path d="M108.9,8.1c-1.2-0.8-2.4-1.5-3.6-2.2l-1.9,3.5c1.1,0.6,2.3,1.3,3.3,2L108.9,8.1z"/>
<path d="M101.4,4.1c-1.3-0.5-2.6-1-4-1.5l-1.2,3.8c1.2,0.4,2.5,0.8,3.6,1.3L101.4,4.1z"/>
<path d="M93.3,1.5c-1.4-0.3-2.8-0.5-4.2-0.7l-0.5,4c1.3,0.2,2.6,0.4,3.8,0.7L93.3,1.5z"/>
<rect x="27" y="108" width="4" height="4"/>
<rect x="27" y="116" width="4" height="4"/>
<rect x="31" y="112" width="4" height="4"/>
<rect x="23" y="112" width="4" height="4"/>
<rect x="136.7" y="0.3" width="4" height="4"/>
<rect x="136.7" y="8.3" width="4" height="4"/>
<rect x="140.7" y="4.3" width="4" height="4"/>
<rect x="132.7" y="4.3" width="4" height="4"/>
</svg>
